:SAMPLES-PER-SECOND 30
:FULLY-SPECIFIED
:DEGREES
1079
root  29.6422 36.7802 51.3874 -146.418 2.38863 177.82
RightUpLeg  -67.0254 -11.8232 10.6608
RightLeg  35.0336 -4.40287 -3.57229
RightFoot  -4.74645 0.203629 -4.08806
RightToes  2.91037e-010 0 -3.6325e-017
Spine  71.472 -2.79531 9.40565
Spine1  10.7992 3.89458 1.17934
HEad  -45.8329 -11.9714 -1.74589
LeftShoulder1  10.7697 -33.1567 -22.6724
LeftArm  -76.939 -73.2696 35.7653
LeftForeArm  72.785 -13.7052 -3.09
LeftHand  -0.244104 0.0205437 5.32207
RightShoulder  3.20364 13.3373 11.9358
RightArm  -64.3805 62.6116 -20.6213
RightForeArm  29.4028 11.2229 1.23391
RightHand  -13.5 27.8105 -44.8911
LeftUpLeg  -65.5838 12.1445 -17.1469
LeftLeg  34.5523 3.49607 2.94814
LeftFoot  -5.45103 -0.337475 7.18435
LeftToes  -1.10052e-010 1.3781e-010 -2.1811e-011
1080
root  29.6786 36.5846 51.166 -144.791 2.84311 177.639
RightUpLeg  -69.2201 -11.2683 10.6103
RightLeg  36.6038 -4.41929 -3.78437
RightFoot  -5.79945 0.1485 -3.87211
RightToes  2.91037e-010 0 -3.6325e-017
Spine  72.4188 -3.17258 8.8956
Spine1  10.7284 3.64188 -0.194951
HEad  -46.7939 -11.2328 -0.727074
LeftShoulder1  8.63367 -32.2686 -17.1323
LeftArm  -78.9353 -71.4469 35.5645
LeftForeArm  72.2557 -16.2262 -1.78492
LeftHand  -0.244104 0.0205437 5.32207
RightShoulder  2.70896 13.3336 8.67479
RightArm  -67.4825 61.3622 -20.932
RightForeArm  30.7403 13.8657 0.833867
RightHand  -15.2313 29.7993 -47.4004
LeftUpLeg  -67.6988 11.7249 -17.5514
LeftLeg  36.0695 3.74381 3.29121
LeftFoot  -6.34322 -0.256778 6.75037
LeftToes  -1.10052e-010 1.3781e-010 -2.1811e-011
1081
root  29.7151 36.4036 50.9154 -143.541 3.14056 177.528
RightUpLeg  -70.9516 -11.0523 10.7512
RightLeg  38.1703 -4.2656 -3.8659
RightFoot  -6.96422 0.0824261 -3.38384
RightToes  2.91037e-010 0 -3.6325e-017
Spine  72.9558 -3.63673 8.57084
Spine1  11.0116 3.27599 -1.45603
HEad  -47.8212 -10.3025 -0.0589619
LeftShoulder1  6.66381 -30.6125 -12.2189
LeftArm  -79.6493 -69.7929 32.6926
LeftForeArm  74.2526 -19.82 -1.12999
LeftHand  -0.244104 0.0205437 5.32207
RightShoulder  2.20372 13.1671 5.44501
RightArm  -70.459 59.5351 -19.6475
RightForeArm  33.3724 17.4795 1.15583
RightHand  -18.0622 32.769 -51.2246
LeftUpLeg  -69.3658 11.6279 -17.991
LeftLeg  37.4719 3.65349 3.37418
LeftFoot  -7.29331 -0.183539 6.43883
LeftToes  -1.10052e-010 1.3781e-010 -2.1811e-011
1082
root  29.7551 36.2644 50.6287 -142.698 3.35406 177.454
RightUpLeg  -72.0631 -11.0421 10.9086
RightLeg  39.5849 -4.21892 -4.01683
RightFoot  -8.2961 0.0170631 -2.74649
RightToes  2.91037e-010 0 -3.6325e-017
Spine  73.1436 -3.87184 8.339
Spine1  11.9267 3.07806 -2.12423
HEad  -48.8018 -9.75028 0.148365
LeftShoulder1  5.46375 -29.2592 -9.111
LeftArm  -81.6102 -68.1518 30.5928
LeftForeArm  77.8319 -23.5508 -1.48374
LeftHand  -0.244104 0.0205437 5.32207
RightShoulder  1.6846 12.5347 2.38167
RightArm  -73.8207 57.5457 -18.8227
RightForeArm  37.0027 21.0658 2.18361
RightHand  -20.8611 35.4132 -54.7284
LeftUpLeg  -70.415 11.6345 -18.2392
LeftLeg  38.7157 3.63174 3.49642
LeftFoot  -8.32366 -0.116108 6.30089
LeftToes  -1.10052e-010 1.3781e-010 -2.1811e-011
1083
root  29.8098 36.1866 50.3194 -142.287 3.45297 177.4
RightUpLeg  -72.4756 -11.1661 10.993
RightLeg  40.7257 -4.4149 -4.35411
RightFoot  -9.75411 -0.0381813 -1.9887
RightToes  2.91037e-010 0 -3.6325e-017
Spine  73.2697 -3.94814 7.99759
Spine1  13.0215 2.91855 -2.42049
HEad  -49.4608 -9.27511 0.210053
LeftShoulder1  4.6334 -28.2955 -6.78876
LeftArm  -83.1687 -66.4556 29.3696
LeftForeArm  79.6035 -26.1404 -2.0463
LeftHand  -0.244104 0.0205437 5.32207
RightShoulder  1.27186 11.7563 -0.0751068
RightArm  -75.4866 56.0291 -18.8479
RightForeArm  39.1595 23.742 3.03777
RightHand  -22.1829 36.6049 -56.2479
LeftUpLeg  -70.7767 11.5494 -18.0466
LeftLeg  39.7507 3.71129 3.68708
LeftFoot  -9.30247 -0.0477874 5.81107
LeftToes  -1.10052e-010 1.3781e-010 -2.1811e-011
1084
root  29.8824 36.1633 49.9965 -142.12 3.33203 177.339
RightUpLeg  -72.4211 -11.4655 11.1086
RightLeg  41.5637 -4.73536 -4.78048
RightFoot  -11.173 -0.0739491 -1.17194
RightToes  2.91037e-010 0 -3.6325e-017
Spine  73.2876 -3.99699 7.63029
Spine1  13.8667 2.64497 -2.53927
HEad  -49.8143 -8.69595 0.289408
LeftShoulder1  3.841 -27.3305 -4.4452
LeftArm  -83.6247 -65.1489 28.1748
LeftForeArm  78.9497 -27.3178 -2.28592
LeftHand  -0.244104 0.0205437 5.32207
RightShoulder  1.0035 11.1146 -1.74799
RightArm  -74.7436 55.0551 -19.0755
RightForeArm  39.3026 25.4756 3.40549
RightHand  -21.6306 36.2389 -55.4497
LeftUpLeg  -70.6095 11.2509 -17.4735
LeftLeg  40.3964 3.82876 3.8725
LeftFoot  -10.0535 0.00341615 5.09562
LeftToes  -1.10052e-010 1.3781e-010 -2.1811e-011
1085
root  29.9726 36.1742 49.6534 -141.811 3.09171 177.241
RightUpLeg  -72.3299 -11.8221 11.3096
RightLeg  42.1259 -5.07211 -5.19519
RightFoot  -12.3763 -0.0893052 -0.575859
RightToes  2.91037e-010 0 -3.6325e-017
Spine  72.9617 -3.99247 7.3081
Spine1  14.3709 2.31217 -2.59909
HEad  -50.2189 -8.10789 0.367738
LeftShoulder1  3.17761 -26.3357 -2.43523
LeftArm  -83.8427 -64.561 27.2462
LeftForeArm  77.2993 -27.5603 -2.37365
LeftHand  -0.244104 0.0205437 5.32207
RightShoulder  0.835661 10.7225 -2.88091
RightArm  -73.0126 54.3005 -19.1912
RightForeArm  38.8136 26.4154 3.62105
RightHand  -20.1394 35.0191 -53.5259
LeftUpLeg  -70.332 10.7951 -16.8565
LeftLeg  40.6293 4.11799 4.16565
LeftFoot  -10.5437 0.0300911 4.81806
LeftToes  -1.10052e-010 1.3781e-010 -2.1811e-011
1086
root  30.081 36.2166 49.2802 -141.271 2.85562 177.055
RightUpLeg  -72.2974 -12.1515 11.4898
RightLeg  42.4399 -5.43453 -5.60105
RightFoot  -13.3812 -0.0963817 -0.317261
RightToes  2.91037e-010 0 -3.6325e-017
Spine  72.3441 -3.92172 7.02918
Spine1  14.6604 2.04448 -2.64883
HEad  -50.93 -7.63138 0.392185
LeftShoulder1  2.75803 -25.6782 -1.09483
LeftArm  -84.4856 -64.4948 27.0931
LeftForeArm  75.5349 -27.2211 -2.35145
LeftHand  -0.244104 0.0205437 5.32207
RightShoulder  0.696927 10.4307 -3.87969
RightArm  -71.9275 53.7815 -19.5649
RightForeArm  38.4597 26.2814 3.61204
RightHand  -18.9995 34.0101 -52.0441
LeftUpLeg  -70.1105 10.3302 -16.4196
LeftLeg  40.5932 4.46209 4.47392
LeftFoot  -10.8545 0.0449161 4.7898
LeftToes  -1.10052e-010 1.3781e-010 -2.1811e-011
1087
root  30.2186 36.3021 48.8744 -140.935 2.51083 176.847
RightUpLeg  -71.8291 -12.5311 11.6136
RightLeg  42.4969 -5.84111 -6.00484
RightFoot  -14.351 -0.0989869 -0.0778282
RightToes  2.91037e-010 0 -3.6325e-017
Spine  71.9374 -3.91604 6.90348
Spine1  14.7232 1.9306 -2.71418
HEad  -51.7153 -7.31982 0.369051
LeftShoulder1  2.50225 -25.5511 -0.149698
LeftArm  -85.5784 -64.6529 27.4021
LeftForeArm  73.909 -26.3251 -2.22358
LeftHand  -0.244104 0.0205437 5.32207
RightShoulder  0.553804 10.06 -4.93258
RightArm  -72.2083 53.7115 -20.295
RightForeArm  38.3895 24.857 3.31721
RightHand  -18.5536 33.647 -51.3954
LeftUpLeg  -69.5779 10.0546 -16.0145
LeftLeg  40.3856 4.46643 4.44777
LeftFoot  -11.0977 0.0574065 4.34633
LeftToes  -1.10052e-010 1.3781e-010 -2.1811e-011
1088
root  30.394 36.3832 48.4403 -140.822 2.14978 176.567
RightUpLeg  -71.0805 -12.9074 11.5889
RightLeg  42.5747 -6.20809 -6.37567
RightFoot  -15.3956 -0.0900025 0.393763
RightToes  2.91037e-010 0 -3.6325e-017
Spine  71.6118 -3.85251 6.86285
Spine1  14.5871 1.94132 -2.70334
HEad  -52.2012 -7.26991 0.296997
LeftShoulder1  2.33553 -25.8497 0.593717
LeftArm  -86.7232 -65.061 27.854
LeftForeArm  72.1474 -24.8074 -1.93512
LeftHand  -0.244104 0.0205437 5.32207
RightShoulder  0.413292 9.61497 -5.99736
RightArm  -72.9163 53.9446 -20.8876
RightForeArm  38.1242 22.7592 2.80674
RightHand  -18.2663 33.4424 -50.9349
LeftUpLeg  -68.7997 10.0136 -15.7621
LeftLeg  40.1461 4.23789 4.20781
LeftFoot  -11.4402 0.0721988 3.84389
LeftToes  -1.10052e-010 1.3781e-010 -2.1811e-011
1089
root  30.598 36.421 47.9784 -140.997 1.85866 176.31
RightUpLeg  -70.1547 -13.2895 11.5416
RightLeg  42.9592 -6.46454 -6.71041
RightFoot  -16.5443 -0.0757705 0.79994
RightToes  2.91037e-010 0 -3.6325e-017
Spine  71.3756 -3.71469 6.82447
Spine1  14.2275 2.00394 -2.73981
HEad  -52.2479 -7.38437 0.169334
LeftShoulder1  2.27338 -26.2748 0.961551
LeftArm  -87.055 -65.8138 28.6803
LeftForeArm  69.4367 -22.6465 -1.27793
LeftHand  -0.244104 0.0205437 5.32207
RightShoulder  0.31312 9.36758 -6.82
RightArm  -72.6447 54.2631 -21.1023
RightForeArm  36.9101 20.8257 2.15332
RightHand  -17.5675 32.7656 -49.9998
LeftUpLeg  -67.8616 10.3929 -15.696
LeftLeg  40.216 4.0278 4.02932
LeftFoot  -12.0736 0.0983543 3.96657
LeftToes  -1.10052e-010 1.3781e-010 -2.1811e-011
1090
root  30.8207 36.4157 47.4846 -141.454 1.61024 176.067
RightUpLeg  -69.1179 -13.778 11.5402
RightLeg  43.7229 -6.63901 -7.06204
RightFoot  -17.7825 -0.0807981 0.710917
RightToes  2.91037e-010 0 -3.6325e-017
Spine  71.1317 -3.57242 6.72634
Spine1  14.0567 2.05281 -2.8689
HEad  -52.0949 -7.53713 -0.0544868
LeftShoulder1  2.26498 -26.6537 1.104
LeftArm  -86.5752 -66.7169 30.089
LeftForeArm  65.7544 -19.968 -0.277403
LeftHand  -0.244104 0.0205437 5.32207
RightShoulder  0.260243 9.23646 -7.26742
RightArm  -71.8218 54.8922 -21.614
RightForeArm  34.8464 18.9805 1.51695
RightHand  -16.4653 31.558 -48.6134
LeftUpLeg  -66.9661 11.3561 -15.9292
LeftLeg  40.875 3.37265 3.51125
LeftFoot  -12.8389 0.129586 4.07861
LeftToes  -1.10052e-010 1.3781e-010 -2.1811e-011
